HIERARCHY
ROOT Root
{
  OFFSET 0.0 0.0 0.0
  CHANNELS 6 Xposition Yposition Zposition Zrotation Yrotation Xrotation
  JOINT Hips
  {
    OFFSET 0.0 100.0 0.0
    CHANNELS 6 Xposition Yposition Zposition Zrotation Yrotation Xrotation
    JOINT Spine1
    {
      OFFSET 5.003913 -0.037094 -0.013727
      CHANNELS 3 Zrotation Yrotation Xrotation
      JOINT Spine2
      {
        OFFSET 7.125363 -1e-06 0.0
        CHANNELS 3 Zrotation Yrotation Xrotation
        JOINT Chest
        {
          OFFSET 7.594027 1e-06 0.0
          CHANNELS 3 Zrotation Yrotation Xrotation
          JOINT Neck1
          {
            OFFSET 26.313086 -0.460272 -0.181672
            CHANNELS 3 Zrotation Yrotation Xrotation
            JOINT Neck2
            {
              OFFSET 8.045911 0.0 0.0
              CHANNELS 3 Zrotation Yrotation Xrotation
              JOINT Head
              {
                OFFSET 6.432774 0.0 0.0
                CHANNELS 3 Zrotation Yrotation Xrotation
                JOINT HeadEnd
                {
                  OFFSET 16.169773 0.06451 0.00362
                  CHANNELS 3 Zrotation Yrotation Xrotation
                }
                JOINT Jaw
                {
                  OFFSET 0.108741 3.12938 0.002639
                  CHANNELS 3 Zrotation Yrotation Xrotation
                }
                JOINT LeftEye
                {
                  OFFSET 4.45173 8.166359 3.206392
                  CHANNELS 3 Zrotation Yrotation Xrotation
                }
                JOINT RightEye
                {
                  OFFSET 4.436895 8.135758 -3.222429
                  CHANNELS 3 Zrotation Yrotation Xrotation
                }
              }
            }
          }
          JOINT LeftShoulder
          {
            OFFSET 23.218927 5.195579 1.621656
            CHANNELS 3 Zrotation Yrotation Xrotation
            JOINT LeftArm
            {
              OFFSET 15.902118 2e-06 -2e-06
              CHANNELS 3 Zrotation Yrotation Xrotation
              JOINT LeftForeArm
              {
                OFFSET 28.739307 0.0 -1e-06
                CHANNELS 3 Zrotation Yrotation Xrotation
                JOINT LeftHand
                {
                  OFFSET 27.093981 -4e-06 0.0
                  CHANNELS 3 Zrotation Yrotation Xrotation
                  JOINT LeftHandThumb1
                  {
                    OFFSET 2.276781 3.380274 0.83384
                    CHANNELS 3 Zrotation Yrotation Xrotation
                    JOINT LeftHandThumb2
                    {
                      OFFSET 4.705309 -1e-06 -1e-06
                      CHANNELS 3 Zrotation Yrotation Xrotation
                      JOINT LeftHandThumb3
                      {
                        OFFSET 2.798515 0.0 3e-06
                        CHANNELS 3 Zrotation Yrotation Xrotation
                        JOINT LeftHandThumbEnd
                        {
                          OFFSET 3.180793 4e-06 -4e-06
                          CHANNELS 3 Zrotation Yrotation Xrotation
                        }
                      }
                    }
                  }
                  JOINT LeftHandIndex1
                  {
                    OFFSET 3.247786 2.352677 0.137192
                    CHANNELS 3 Zrotation Yrotation Xrotation
                    JOINT LeftHandIndex2
                    {
                      OFFSET 6.367095 1e-06 0.0
                      CHANNELS 3 Zrotation Yrotation Xrotation
                      JOINT LeftHandIndex3
                      {
                        OFFSET 3.662364 0.0 0.0
                        CHANNELS 3 Zrotation Yrotation Xrotation
                        JOINT LeftHandIndex4
                        {
                          OFFSET 2.329242 4e-06 -4e-06
                          CHANNELS 3 Zrotation Yrotation Xrotation
                          JOINT LeftHandIndexEnd
                          {
                            OFFSET 2.767823 1e-06 0.0
                            CHANNELS 3 Zrotation Yrotation Xrotation
                          }
                        }
                      }
                    }
                  }
                  JOINT LeftHandMiddle1
                  {
                    OFFSET 3.163612 0.945023 -0.406112
                    CHANNELS 3 Zrotation Yrotation Xrotation
                    JOINT LeftHandMiddle2
                    {
                      OFFSET 6.276789 3e-06 0.0
                      CHANNELS 3 Zrotation Yrotation Xrotation
                      JOINT LeftHandMiddle3
                      {
                        OFFSET 4.35652 -1e-06 4e-06
                        CHANNELS 3 Zrotation Yrotation Xrotation
                        JOINT LeftHandMiddle4
                        {
                          OFFSET 2.996877 0.0 8e-06
                          CHANNELS 3 Zrotation Yrotation Xrotation
                          JOINT LeftHandMiddleEnd
                          {
                            OFFSET 2.323256 3e-06 -4e-06
                            CHANNELS 3 Zrotation Yrotation Xrotation
                          }
                        }
                      }
                    }
                  }
                  JOINT LeftHandRing1
                  {
                    OFFSET 2.882606 -0.309162 0.107445
                    CHANNELS 3 Zrotation Yrotation Xrotation
                    JOINT LeftHandRing2
                    {
                      OFFSET 6.033198 0.0 4e-06
                      CHANNELS 3 Zrotation Yrotation Xrotation
                      JOINT LeftHandRing3
                      {
                        OFFSET 4.350578 3e-06 0.0
                        CHANNELS 3 Zrotation Yrotation Xrotation
                        JOINT LeftHandRing4
                        {
                          OFFSET 2.651321 2e-06 -7e-06
                          CHANNELS 3 Zrotation Yrotation Xrotation
                          JOINT LeftHandRingEnd
                          {
                            OFFSET 1.937663 1e-06 -4e-06
                            CHANNELS 3 Zrotation Yrotation Xrotation
                          }
                        }
                      }
                    }
                  }
                  JOINT LeftHandPinky1
                  {
                    OFFSET 2.865315 -1.525436 0.575687
                    CHANNELS 3 Zrotation Yrotation Xrotation
                    JOINT LeftHandPinky2
                    {
                      OFFSET 5.54936 1e-06 -8e-06
                      CHANNELS 3 Zrotation Yrotation Xrotation
                      JOINT LeftHandPinky3
                      {
                        OFFSET 3.070974 0.0 -4e-06
                        CHANNELS 3 Zrotation Yrotation Xrotation
                        JOINT LeftHandPinky4
                        {
                          OFFSET 1.549672 1e-06 0.0
                          CHANNELS 3 Zrotation Yrotation Xrotation
                          JOINT LeftHandPinkyEnd
                          {
                            OFFSET 1.952123 0.0 0.0
                            CHANNELS 3 Zrotation Yrotation Xrotation
                          }
                        }
                      }
                    }
                  }
                }
              }
            }
          }
          JOINT RightShoulder
          {
            OFFSET 23.161716 5.296122 -1.380114
            CHANNELS 3 Zrotation Yrotation Xrotation
            JOINT RightArm
            {
              OFFSET -16.027195 -2e-06 1.1e-05
              CHANNELS 3 Zrotation Yrotation Xrotation
              JOINT RightForeArm
              {
                OFFSET -28.736639 4e-06 2e-06
                CHANNELS 3 Zrotation Yrotation Xrotation
                JOINT RightHand
                {
                  OFFSET -27.133619 6e-06 0.0
                  CHANNELS 3 Zrotation Yrotation Xrotation
                  JOINT RightHandThumb1
                  {
                    OFFSET -2.274328 -3.351035 -0.83067
                    CHANNELS 3 Zrotation Yrotation Xrotation
                    JOINT RightHandThumb2
                    {
                      OFFSET -4.703594 -3e-06 2e-06
                      CHANNELS 3 Zrotation Yrotation Xrotation
                      JOINT RightHandThumb3
                      {
                        OFFSET -2.794935 -4e-06 -3e-06
                        CHANNELS 3 Zrotation Yrotation Xrotation
                        JOINT RightHandThumbEnd
                        {
                          OFFSET -3.183852 4e-06 1e-06
                          CHANNELS 3 Zrotation Yrotation Xrotation
                        }
                      }
                    }
                  }
                  JOINT RightHandIndex1
                  {
                    OFFSET -3.253496 -2.33755 -0.127667
                    CHANNELS 3 Zrotation Yrotation Xrotation
                    JOINT RightHandIndex2
                    {
                      OFFSET -6.344434 0.0 0.0
                      CHANNELS 3 Zrotation Yrotation Xrotation
                      JOINT RightHandIndex3
                      {
                        OFFSET -3.654871 0.0 -8e-06
                        CHANNELS 3 Zrotation Yrotation Xrotation
                        JOINT RightHandIndex4
                        {
                          OFFSET -2.327586 -1e-06 0.0
                          CHANNELS 3 Zrotation Yrotation Xrotation
                          JOINT RightHandIndexEnd
                          {
                            OFFSET -2.770001 3e-06 8e-06
                            CHANNELS 3 Zrotation Yrotation Xrotation
                          }
                        }
                      }
                    }
                  }
                  JOINT RightHandMiddle1
                  {
                    OFFSET -3.168223 -0.944764 0.411762
                    CHANNELS 3 Zrotation Yrotation Xrotation
                    JOINT RightHandMiddle2
                    {
                      OFFSET -6.266691 -1e-06 -4e-06
                      CHANNELS 3 Zrotation Yrotation Xrotation
                      JOINT RightHandMiddle3
                      {
                        OFFSET -4.348901 0.0 0.0
                        CHANNELS 3 Zrotation Yrotation Xrotation
                        JOINT RightHandMiddle4
                        {
                          OFFSET -3.00024 2e-06 -4e-06
                          CHANNELS 3 Zrotation Yrotation Xrotation
                          JOINT RightHandMiddleEnd
                          {
                            OFFSET -2.321477 -4e-06 -4e-06
                            CHANNELS 3 Zrotation Yrotation Xrotation
                          }
                        }
                      }
                    }
                  }
                  JOINT RightHandRing1
                  {
                    OFFSET -2.885654 0.293261 -0.119232
                    CHANNELS 3 Zrotation Yrotation Xrotation
                    JOINT RightHandRing2
                    {
                      OFFSET -6.032835 -1e-06 -4e-06
                      CHANNELS 3 Zrotation Yrotation Xrotation
                      JOINT RightHandRing3
                      {
                        OFFSET -4.33881 0.0 -4e-06
                        CHANNELS 3 Zrotation Yrotation Xrotation
                        JOINT RightHandRing4
                        {
                          OFFSET -2.654903 -4e-06 -4e-06
                          CHANNELS 3 Zrotation Yrotation Xrotation
                          JOINT RightHandRingEnd
                          {
                            OFFSET -1.935122 0.0 4e-06
                            CHANNELS 3 Zrotation Yrotation Xrotation
                          }
                        }
                      }
                    }
                  }
                  JOINT RightHandPinky1
                  {
                    OFFSET -2.866241 1.503904 -0.60527
                    CHANNELS 3 Zrotation Yrotation Xrotation
                    JOINT RightHandPinky2
                    {
                      OFFSET -5.553177 -2e-06 0.0
                      CHANNELS 3 Zrotation Yrotation Xrotation
                      JOINT RightHandPinky3
                      {
                        OFFSET -3.062664 -1e-06 -4e-06
                        CHANNELS 3 Zrotation Yrotation Xrotation
                        JOINT RightHandPinky4
                        {
                          OFFSET -1.546529 2e-06 4e-06
                          CHANNELS 3 Zrotation Yrotation Xrotation
                          JOINT RightHandPinkyEnd
                          {
                            OFFSET -1.952341 0.0 -4e-06
                            CHANNELS 3 Zrotation Yrotation Xrotation
                          }
                        }
                      }
                    }
                  }
                }
              }
            }
          }
        }
      }
    }
    JOINT LeftLeg
    {
      OFFSET -8.443107 2.567604 10.043214
      CHANNELS 3 Zrotation Yrotation Xrotation
      JOINT LeftShin
      {
        OFFSET 43.229198 1e-06 -1e-06
        CHANNELS 3 Zrotation Yrotation Xrotation
        JOINT LeftFoot
        {
          OFFSET 42.298611 1e-06 1e-06
          CHANNELS 3 Zrotation Yrotation Xrotation
          JOINT LeftToeBase
          {
            OFFSET 14.165858 1e-06 0.0
            CHANNELS 3 Zrotation Yrotation Xrotation
            JOINT LeftToeEnd
            {
              OFFSET 6.7141 -0.234461 0.0
              CHANNELS 3 Zrotation Yrotation Xrotation
            }
          }
        }
      }
    }
    JOINT RightLeg
    {
      OFFSET -8.303923 2.592729 -10.047278
      CHANNELS 3 Zrotation Yrotation Xrotation
      JOINT RightShin
      {
        OFFSET -43.369682 0.0 1e-06
        CHANNELS 3 Zrotation Yrotation Xrotation
        JOINT RightFoot
        {
          OFFSET -42.260784 4e-06 2e-06
          CHANNELS 3 Zrotation Yrotation Xrotation
          JOINT RightToeBase
          {
            OFFSET -14.222245 -2e-06 -1e-06
            CHANNELS 3 Zrotation Yrotation Xrotation
            JOINT RightToeEnd
            {
              OFFSET -6.660062 0.232574 -2e-06
              CHANNELS 3 Zrotation Yrotation Xrotation
            }
          }
        }
      }
    }
  }
}
MOTION
Frames: 5
Frame Time: 0.03333333333333333
0.0 0.0 0.0 0.0 -0.0 0.0 -1.118129 48.396584 1.065532 89.338394 -52.230015 89.82032 11.971588 0.435668 -0.626366 -4.222974 -0.436345 -1.1703 25.341946 2.503578 -2.484792 19.745275 -2.366301 2.397234 -2.941719 -0.555131 0.974962 -35.261604 0.536791 0.852894 5e-06 0.0 -0.0 -0.113986 0.039912 -0.021283 0.08399 -0.012065 0.041718 0.051451 0.09351 -0.07838 -37.258305 -74.256783 43.544041 81.550987 -0.780412 -19.118753 10.611152 -1.231075 0.103124 -3.716205 67.542358 -5.104652 17.636633 -26.322729 52.411182 -19.466652 -14.395594 29.410378 -1e-06 -8.774819 -2e-06 16.53834 -17.595476 6.196723 -0.609776 -1.79565 -3.889327 -4.80709 -11.046812 -2.937849 3e-06 -20.976015 1e-06 -5.01997 -25.033552 -4.031878 6e-06 0.0 -1e-06 -10.634535 -5.686969 -3.565587 10.573271 -17.922947 -3.113898 2e-06 -13.821208 1e-06 -0.501779 -31.181498 -4.027013 -10.969254 -59.848202 7.724169 -13.982713 -7.150196 -2.875041 13.772727 -8.401492 -3.21824 0.347731 -34.211544 0.771658 -0.963029 -17.733366 2.621021 0.0 0.0 -0.0 -17.346416 -20.095213 -4.201782 21.757555 -1.638377 3.866428 1e-06 -6.338822 1e-06 -1.69759 -22.591742 -6.194004 -0.0 -4e-06 -2e-06 172.401276 -77.963486 14.244352 89.381569 0.363606 -15.488969 9.91055 -0.770893 0.053849 -36.692635 67.034172 -42.094398 22.182117 -20.375898 49.933327 -16.701817 -16.74353 28.476532 -3e-06 -12.690603 -0.0 16.481237 -17.836016 2.574058 -0.10592 -1.513856 -4.275881 -5.039042 -5.612873 -2.953557 4e-06 -11.020527 -3e-06 -6.1113 -15.895332 -3.84047 -1e-06 -0.0 0.0 -10.283373 -5.68029 -4.341838 11.028296 -11.302406 -2.372636 -1.384266 -14.238587 -6.320123 -0.625437 -26.924194 -3.827604 -4.062969 -48.822639 -4.377604 -13.708527 -7.363479 -3.72094 18.141153 -14.052741 -3.242677 6e-06 -18.787271 -4e-06 -0.429712 -8.456046 2.555504 -0.0 -1e-06 2e-06 -15.923536 -20.09449 -5.473587 30.419218 -7.190826 1.735927 3e-06 -8.162925 -1e-06 -1.861902 -22.861475 -6.167945 -0.0 -2e-06 -1e-06 114.861206 -10.051121 8.71928 125.891098 -0.641314 0.202676 -101.623322 14.790636 10.125278 -48.029758 1.959691 1.310666 -1.000001 0.0 0.0 -55.574532 -5.764819 4.621001 118.381813 -0.398073 0.109886 -103.423965 12.482919 14.52387 -49.979164 1.284958 1.399425 -1.000006 -0.0 1e-06 
0.0 0.0 0.0 0.0 -0.0 0.0 -1.055126 48.387997 1.227505 89.025101 -52.281776 89.937645 11.949454 0.501862 -0.63859 -4.285645 -0.407686 -1.103186 25.337317 2.478374 -2.329497 19.659531 -2.405389 2.270586 -2.924584 -0.533225 0.913619 -35.131981 0.582693 0.804903 7e-06 -0.0 0.0 -0.118516 0.030097 -0.023071 0.119286 -0.032262 0.045635 0.082143 0.095866 -0.088553 -37.283478 -74.407143 43.85981 81.565826 -0.561502 -19.237843 10.413465 -1.228765 0.090487 -2.5914 67.57093 -4.043455 17.636612 -26.322733 52.411198 -19.466663 -14.3956 29.410389 -0.0 -8.774821 -0.0 16.483801 -17.61257 6.225062 -0.609776 -1.795654 -3.889328 -4.807087 -11.046807 -2.93785 5e-06 -20.976015 -1e-06 -5.019967 -25.033552 -4.03188 6e-06 -0.0 1e-06 -10.634531 -5.686969 -3.565586 10.573272 -17.922947 -3.113903 3e-06 -13.821206 0.0 -0.501776 -31.181498 -4.027013 -10.772103 -59.899994 7.603276 -13.982709 -7.150198 -2.87504 13.772726 -8.401489 -3.218244 0.347734 -34.211544 0.771653 -0.963028 -17.733366 2.621019 0.0 0.0 0.0 -17.346413 -20.095211 -4.20178 21.757555 -1.638376 3.866422 2e-06 -6.338823 0.0 -1.697587 -22.591742 -6.194005 -0.0 -5e-06 -2e-06 172.310303 -77.914452 14.494437 89.483055 0.394293 -15.815464 9.73289 -0.768845 0.058166 -35.969986 67.072441 -41.831825 22.182108 -20.375895 49.933319 -16.701811 -16.74353 28.476532 -3e-06 -12.6906 -0.0 16.442806 -17.814032 2.608123 -0.105918 -1.513855 -4.275881 -5.03904 -5.612872 -2.953557 5e-06 -11.020525 -3e-06 -6.111297 -15.89533 -3.840472 -1e-06 -0.0 2e-06 -10.283369 -5.680288 -4.341838 11.028295 -11.302402 -2.372632 -1.384269 -14.238586 -6.320121 -0.625439 -26.924191 -3.827605 -4.052106 -48.911701 -4.281523 -13.708524 -7.363478 -3.720938 18.14115 -14.052738 -3.242676 6e-06 -18.78727 -3e-06 -0.429711 -8.456044 2.555503 0.0 0.0 0.0 -15.923536 -20.094482 -5.473585 30.41921 -7.190828 1.735925 3e-06 -8.162924 -1e-06 -1.861903 -22.861469 -6.167941 -0.0 -2e-06 -2e-06 114.987518 -10.264979 8.711858 125.717094 -0.658636 0.198067 -101.229973 14.829615 10.321023 -47.980637 1.943909 1.255866 -0.999997 0.0 -0.0 -55.438046 -5.556317 4.474123 118.093483 -0.452095 0.079275 -102.971794 12.562488 14.68144 -49.712929 1.275609 1.398634 -1.000004 -1e-06 0.0 
0.0 0.0 0.0 0.0 -0.0 0.0 -0.99726 48.381119 1.486818 88.840698 -52.305824 90.00396 11.890923 0.525823 -0.623097 -4.334258 -0.373312 -1.035231 25.354549 2.475383 -2.216291 19.59445 -2.415059 2.16431 -2.916937 -0.589569 0.817837 -35.076286 0.554526 0.736737 7e-06 0.0 -0.0 -0.114856 0.012165 -0.018732 0.115387 -0.055484 0.04656 0.078142 0.084207 -0.084097 -36.828178 -74.486931 43.63414 81.532433 -0.434482 -19.022667 10.374866 -1.231126 0.085291 -2.580733 67.460312 -4.099868 17.636625 -26.322733 52.411179 -19.466661 -14.395597 29.410385 -1e-06 -8.774821 -1e-06 16.41823 -17.604692 6.243996 -0.609776 -1.795655 -3.889328 -4.807088 -11.046813 -2.937849 4e-06 -20.976015 1e-06 -5.019971 -25.03356 -4.031877 6e-06 -0.0 1e-06 -10.634531 -5.686974 -3.565586 10.573272 -17.922953 -3.113901 2e-06 -13.821213 1e-06 -0.501778 -31.181505 -4.027014 -10.64542 -59.912945 7.528408 -13.982711 -7.150199 -2.87504 13.772728 -8.401495 -3.218242 0.347733 -34.211555 0.771656 -0.963029 -17.73337 2.62102 0.0 -0.0 0.0 -17.346416 -20.095219 -4.201778 21.757555 -1.638375 3.866426 1e-06 -6.338825 1e-06 -1.697589 -22.591745 -6.194005 -0.0 -4e-06 -1e-06 172.823914 -77.836533 14.115824 89.373703 0.363755 -16.203856 9.617913 -0.82464 0.05759 -35.419056 67.244873 -41.441486 22.1821 -20.375889 49.933304 -16.701811 -16.74353 28.476528 -3e-06 -12.690598 1e-06 16.41398 -17.744873 2.623823 -0.10592 -1.513855 -4.27588 -5.039039 -5.612872 -2.953554 4e-06 -11.020527 -3e-06 -6.111298 -15.89533 -3.840469 -1e-06 -2e-06 1e-06 -10.283369 -5.680287 -4.341836 11.028293 -11.302402 -2.372635 -1.38427 -14.238585 -6.320119 -0.625439 -26.924181 -3.8276 -4.03046 -48.91148 -4.190376 -13.708524 -7.363475 -3.720937 18.14115 -14.052741 -3.242676 4e-06 -18.787273 -1e-06 -0.429712 -8.456044 2.555504 0.0 1e-06 1e-06 -15.923534 -20.094484 -5.473581 30.41921 -7.190823 1.735924 2e-06 -8.162925 -1e-06 -1.861904 -22.861471 -6.167943 -0.0 -2e-06 -1e-06 115.321968 -10.425151 8.599532 125.444702 -0.672221 0.201062 -101.113754 14.751201 10.486366 -47.986931 1.93823 1.241079 -1.000001 1e-06 0.0 -55.131145 -5.395769 4.41302 117.700172 -0.484446 0.081272 -102.595543 12.581023 14.771141 -49.637287 1.264771 1.401314 -1.000003 -2e-06 -0.0 
0.0 0.0 0.0 0.0 -0.0 0.0 -0.960288 48.381813 1.671532 88.673241 -52.355206 90.092552 11.826872 0.539138 -0.600667 -4.376957 -0.356321 -0.98484 25.343409 2.541283 -2.132499 19.517281 -2.47001 2.077274 -2.905207 -0.665895 0.725975 -35.120426 0.507746 0.662922 6e-06 -0.0 -0.0 -0.110796 -0.005747 -0.012826 0.099522 -0.075548 0.046589 0.063203 0.068518 -0.074342 -36.482594 -74.543282 43.450382 81.502197 -0.390159 -18.82848 10.431467 -1.238073 0.079339 -2.728876 67.449692 -4.08217 17.636625 -26.322725 52.411182 -19.46666 -14.395597 29.410385 -1e-06 -8.774821 -1e-06 16.358564 -17.585728 6.256677 -0.609775 -1.795653 -3.889327 -4.807087 -11.046808 -2.93785 5e-06 -20.976011 -0.0 -5.019969 -25.033546 -4.031879 6e-06 -0.0 1e-06 -10.634531 -5.686968 -3.565586 10.573274 -17.922945 -3.1139 2e-06 -13.821208 1e-06 -0.501778 -31.181498 -4.027015 -10.627761 -59.915676 7.490661 -13.982712 -7.150196 -2.875041 13.772729 -8.401489 -3.218242 0.347733 -34.211544 0.771655 -0.963029 -17.733366 2.62102 0.0 0.0 0.0 -17.346416 -20.095213 -4.201779 21.757557 -1.638375 3.866426 1e-06 -6.338823 1e-06 -1.697589 -22.591742 -6.194005 0.0 -4e-06 -2e-06 173.400696 -77.708397 13.561397 89.209053 0.193722 -16.56538 9.612566 -0.859952 0.055649 -35.029995 67.385788 -41.165764 22.182112 -20.375885 49.933292 -16.701807 -16.743526 28.476515 -4e-06 -12.690597 0.0 16.406879 -17.687862 2.621582 -0.105918 -1.513854 -4.27588 -5.039041 -5.612869 -2.953556 5e-06 -11.02052 -4e-06 -6.111296 -15.895328 -3.840469 -1e-06 -1e-06 1e-06 -10.283369 -5.680287 -4.341836 11.028293 -11.302401 -2.372631 -1.384268 -14.238583 -6.32012 -0.625437 -26.924183 -3.8276 -4.001786 -48.914066 -4.121426 -13.708521 -7.363475 -3.720937 18.141148 -14.052737 -3.242672 7e-06 -18.787266 -1e-06 -0.429711 -8.45604 2.555502 0.0 -1e-06 0.0 -15.923534 -20.094479 -5.473582 30.41921 -7.190823 1.735927 3e-06 -8.162922 -0.0 -1.861903 -22.861467 -6.167937 0.0 -2e-06 -1e-06 115.509399 -10.521275 8.572607 125.2528 -0.676594 0.200796 -101.043968 14.693232 10.636103 -48.192554 1.941957 1.244864 -0.999999 1e-06 -0.0 -54.943745 -5.226537 4.395718 117.412796 -0.481845 0.076657 -102.310402 12.510331 14.825867 -49.685421 1.256426 1.40556 -1.000006 0.0 1e-06 
0.0 0.0 0.0 0.0 -0.0 0.0 -0.913719 48.417328 1.789673 88.47113 -52.428352 90.191376 11.778148 0.551342 -0.571073 -4.413923 -0.34637 -0.937556 25.303951 2.649197 -2.065167 19.388111 -2.614965 1.997351 -2.89398 -0.722304 0.653739 -35.146366 0.523588 0.575491 6e-06 0.0 -0.0 -0.110043 -0.033844 -0.001296 0.087764 -0.107374 0.055574 0.052379 0.043714 -0.060788 -36.298187 -74.608101 43.370121 81.458466 -0.405078 -18.696039 10.527238 -1.261489 0.072781 -2.785841 67.566147 -3.914047 17.636625 -26.322729 52.411182 -19.466663 -14.395598 29.410385 -0.0 -8.774821 -2e-06 16.322803 -17.594126 6.262204 -0.609776 -1.795655 -3.889328 -4.807087 -11.046809 -2.93785 4e-06 -20.976015 -0.0 -5.019971 -25.033556 -4.031879 6e-06 -0.0 0.0 -10.634535 -5.68697 -3.565587 10.573275 -17.922951 -3.113901 2e-06 -13.821209 1e-06 -0.501778 -31.181498 -4.027015 -10.724693 -59.929016 7.538387 -13.982712 -7.150198 -2.875041 13.772727 -8.40149 -3.218241 0.347732 -34.211544 0.771655 -0.963029 -17.73337 2.621019 0.0 -0.0 -0.0 -17.346416 -20.095215 -4.201779 21.757557 -1.638374 3.866427 1e-06 -6.338823 1e-06 -1.69759 -22.591747 -6.194006 -0.0 -4e-06 -2e-06 174.063446 -77.547539 12.836947 89.049538 -0.035619 -16.928482 9.621899 -0.878157 0.05519 -34.669613 67.475266 -40.989491 22.18211 -20.375891 49.933308 -16.701807 -16.743528 28.476521 -4e-06 -12.690598 -1e-06 16.437376 -17.669308 2.598559 -0.105919 -1.513858 -4.275879 -5.03904 -5.612867 -2.953555 3e-06 -11.020523 -4e-06 -6.111298 -15.89533 -3.840471 -1e-06 -0.0 1e-06 -10.28337 -5.680288 -4.341836 11.028296 -11.302402 -2.372633 -1.384269 -14.238581 -6.32012 -0.625437 -26.924183 -3.827599 -3.97766 -48.9529 -4.098947 -13.708523 -7.363476 -3.720937 18.141148 -14.052736 -3.242673 4e-06 -18.787268 -1e-06 -0.429713 -8.456045 2.555504 0.0 0.0 2e-06 -15.923536 -20.094482 -5.473582 30.41921 -7.190824 1.735925 2e-06 -8.162922 -2e-06 -1.861902 -22.861467 -6.167942 -1e-06 -2e-06 -1e-06 115.570206 -10.603682 8.602725 125.144707 -0.672376 0.18741 -101.183601 14.609083 10.781199 -48.471836 1.954562 1.262696 -0.999995 1e-06 -0.0 -54.886921 -5.023301 4.401387 117.190628 -0.472853 0.059005 -102.123497 12.396369 14.85138 -49.68816 1.254351 1.412276 -1.000004 -0.0 0.0 
